<svg xmlns="http://www.w3.org/2000/svg" width="512" height="512"><defs><filter color-interpolation-filters="sRGB" id="f"><feFlood result="flood" flood-color="#000" flood-opacity=".9"/><feComposite result="composite1" operator="in" in="flood" in2="SourceGraphic"/><feGaussianBlur result="blur" stdDeviation="3"/><feOffset result="offset"/><feComposite result="composite2" in="SourceGraphic" in2="offset"/></filter><filter color-interpolation-filters="sRGB" id="e"><feFlood result="flood" flood-color="#000" flood-opacity=".9"/><feComposite result="composite1" operator="in" in="flood" in2="SourceGraphic"/><feGaussianBlur result="blur" stdDeviation="3"/><feOffset result="offset"/><feComposite result="composite2" in="SourceGraphic" in2="offset"/></filter><filter color-interpolation-filters="sRGB" id="d"><feFlood result="flood" flood-color="#000" flood-opacity=".9"/><feComposite result="composite1" operator="in" in="flood" in2="SourceGraphic"/><feGaussianBlur result="blur" stdDeviation="3"/><feOffset result="offset"/><feComposite result="composite2" in="SourceGraphic" in2="offset"/></filter><filter color-interpolation-filters="sRGB" id="c"><feFlood result="flood" flood-color="#000" flood-opacity=".9"/><feComposite result="composite1" operator="in" in="flood" in2="SourceGraphic"/><feGaussianBlur result="blur" stdDeviation="3"/><feOffset result="offset"/><feComposite result="composite2" in="SourceGraphic" in2="offset"/></filter><filter color-interpolation-filters="sRGB" id="b"><feFlood result="flood" flood-color="#000" flood-opacity=".9"/><feComposite result="composite1" operator="in" in="flood" in2="SourceGraphic"/><feGaussianBlur result="blur" stdDeviation="3"/><feOffset result="offset"/><feComposite result="composite2" in="SourceGraphic" in2="offset"/></filter><filter color-interpolation-filters="sRGB" id="a"><feFlood result="flood" flood-color="#000" flood-opacity=".9"/><feComposite result="composite1" operator="in" in="flood" in2="SourceGraphic"/><feGaussianBlur result="blur" stdDeviation="3"/><feOffset result="offset"/><feComposite result="composite2" in="SourceGraphic" in2="offset"/></filter></defs><g transform="translate(-.346 -10.337) scale(1.27245)"><text transform="matrix(1.10624 0 0 1.1025 -123.965 -77.373)" y="304.203" x="212.778" style="line-height:125%;-inkscape-font-specification:Sawasdee Bold" font-size="14.784" font-weight="700" letter-spacing="0" word-spacing="0" fill="#7c8083" font-family="Sans"><tspan style="-inkscape-font-specification:Sans" y="304.203" x="212.778" font-size="3.696" font-weight="400" fill="#1a1a1a">DCMETROHERO.COM</tspan></text><path d="M107.799 256.528a7.212 7.212 0 1 1-14.423.003 7.212 7.212 0 0 1 14.423-.003" fill="#3f51b5"/><path d="M104.5 256.042a3.72 3.72 0 0 0-.711-1.808 3.876 3.876 0 0 0-2.548-1.586c-.212-.037-.429-.047-.643-.069h-.042c-.2.022-.402.037-.6.067-2.042.314-3.518 2.247-3.285 4.304.111.981.523 1.819 1.253 2.486.868.794 1.899 1.135 3.068 1.023a3.756 3.756 0 0 0 2.325-1.078c.937-.918 1.326-2.04 1.183-3.339zm-.831 2.022a2.942 2.942 0 0 1-.283-.624c-.081-.3-.278-.01-.294.186-.017.196-.147.344-.41.05-.261-.295-.31-.23-.392-.23-.082 0-.23.196-.196 1.113.023.654.281.758.45.806a3.352 3.352 0 0 1-1.077.487 3.383 3.383 0 0 1-3.856-1.733c-.686-1.317-.352-2.808.346-3.628.018.148.037.28.052.413.042.363.01.722-.064 1.079a.525.525 0 0 0 .01.237c.011.041.073.09.116.094.033.003.092-.05.105-.09.025-.071.026-.151.033-.228.006-.054.006-.109.01-.194.055.045.095.072.129.106.085.086.172.172.25.264.034.042.07.099.069.149-.002.105.044.177.101.26.063.093.091.21.132.316.017.045.02.096.04.139.044.092.11.156.221.162.119.008.163.054.18.175l-.09.01c-.145.014-.216.08-.21.225.01.288.115.54.33.741.058.055.12.107.178.163.131.13.177.282.114.46-.03.086-.072.17-.085.257a.736.736 0 0 0 .007.274c.022.091.012.29.106.274.167-.029.262.004.275-.183.003-.035 0-.04-.01-.072-.049-.175.176-.672.31-.762.116-.078.231-.156.336-.247.15-.131.218-.3.154-.497-.06-.185.01-.321.14-.44.132-.122.219-.262.21-.449-.01-.187-.132-.322-.291-.303-.078.01-.153.047-.229.073-.111.037-.22.09-.335.11-.16.029-.259-.076-.33-.203-.058-.102-.077-.11-.176-.046-.085.054-.169.108-.256.157-.09.05-.14.031-.21-.044-.041-.045-.099-.076-.152-.109-.038-.023-.09-.03-.12-.059-.041-.04-.098-.098-.093-.141.007-.051.066-.114.117-.135.088-.036.188-.041.282-.062a.963.963 0 0 0 .149-.04c.065-.027.062-.07.012-.11a.332.332 0 0 0-.084-.045c-.144-.058-.289-.113-.432-.172a.593.593 0 0 1-.103-.052c-.09-.06-.102-.125-.02-.198.324-.285.702-.369 1.037.01.104.118.174.265.272.388.077.097.166.188.264.263.04.031.131.037.177.012.067-.037.07-.121.035-.191a.968.968 0 0 0-.105-.174c-.19-.245-.177-.723.196-.922.125-.067.25-.138.31-.317-.071.02-.123.032-.174.048-.283.087-.086-.124.044-.16.08-.023-.07-.084-.07-.084.003-.006.099-.033.206-.079a.866.866 0 0 0 .21-.116c.039-.032.054-.094.08-.143a4.124 4.124 0 0 0-.02-.023l-.224.03c-.127.014-.157-.01-.169-.14-.008-.087-.097-.134-.18-.09-.057.031-.106.075-.16.11-.125.082-.219.05-.268-.09-.029-.084-.07-.1-.146-.053-.039.023-.07.058-.11.08-.064.035-.13.071-.198.096-.068.023-.149.04-.194-.033-.05-.08-.006-.156.056-.206.076-.062.165-.11.252-.158.123-.07.254-.127.373-.203a.219.219 0 0 0 .097-.254c-.024-.09-.084-.121-.168-.08-.07.035-.13.089-.201.116a.339.339 0 0 1-.173.01c-.02-.003-.042-.06-.043-.093 0-.02.038-.053.063-.057.172-.026.345-.05.518-.069a.094.094 0 0 1 .072.03c.114.144.273.214.441.264.141.042.162.022.18-.126.182-.042.366-.126.548-.011a1.7 1.7 0 0 1 .279.228c.021.021.008.086-.002.127-.013.056-.044.108-.059.164-.027.108.043.193.155.191.035 0 .07-.008.106-.01.103-.004.14.035.13.14-.013.148.012.166.161.14.043-.007.093.013.137.028.026.01.046.034.07.052.138.105.244.065.285-.107.004-.019.004-.039.008-.058.016-.077.06-.097.112-.042.11.117.214.24.326.368-.12.11-.125.245-.098.377.03.146-.009.273-.067.402-.055.123-.116.246-.153.375-.055.194.008.283.205.326.188.04.218.079.226.262.009.251.138.424.358.534.048.025.1.043.15.064a3.108 3.108 0 0 1-.323 1.17z" fill="#fff"/><path d="M107.799 211.412a7.212 7.212 0 1 1-14.423.002 7.212 7.212 0 0 1 14.423-.002" fill="#3f51b5"/><path d="M102.545 213.39h-1.952a.939.939 0 0 1-.692-.285.945.945 0 0 1-.285-.694v-.695h2.782a.88.88 0 0 0 .646-.27c.18-.18.27-.396.27-.647a.883.883 0 0 0-.27-.647.887.887 0 0 0-.649-.27h-2.779v-1.435a.956.956 0 0 0-.289-.698.939.939 0 0 0-.692-.292.964.964 0 0 0-.704.286.952.952 0 0 0-.288.704v3.964c0 .815.288 1.512.865 2.09.577.58 1.272.868 2.086.868h1.952a.95.95 0 0 0 .697-.291.95.95 0 0 0 .29-.698.953.953 0 0 0-.29-.698.953.953 0 0 0-.698-.291z" fill="#fff"/><text transform="matrix(1.10624 0 0 1.1025 -123.965 -77.373)" y="263.136" x="212.911" style="line-height:125%;-inkscape-font-specification:Sawasdee Bold" font-size="14.784" font-weight="700" letter-spacing="0" word-spacing="0" fill="#7c8083" font-family="Sans"><tspan style="-inkscape-font-specification:Sans" y="263.136" x="212.911" font-size="3.696" font-weight="400" fill="#1a1a1a">TWITTER.COM/<tspan fill="#3f51b5">DCMETROHERO</tspan></tspan></text><text transform="matrix(1.10624 0 0 1.1025 -123.965 -78.802)" y="284.893" x="212.778" style="line-height:125%;-inkscape-font-specification:Sawasdee Bold" font-size="14.784" font-weight="700" letter-spacing="0" word-spacing="0" fill="#7c8083" font-family="Sans"><tspan style="-inkscape-font-specification:Sans" y="284.893" x="212.778" font-size="3.696" font-weight="400" fill="#1a1a1a">FACEBOOK.COM/<tspan fill="#3f51b5">METROHERO</tspan></tspan></text><path d="M107.799 233.972a7.209 7.209 0 0 1-7.21 7.21 7.21 7.21 0 1 1 0-14.422 7.21 7.21 0 0 1 7.21 7.212" fill="#3f51b5"/><path d="M102.8 229.547l-1.147-.002c-1.29 0-2.123.855-2.123 2.179v1.004h-1.155a.18.18 0 0 0-.18.18v1.456c0 .1.08.18.18.18h1.155v3.673c0 .1.08.18.18.18h1.506c.1 0 .18-.08.18-.18v-3.672h1.35c.1 0 .18-.081.18-.18l.001-1.456a.18.18 0 0 0-.18-.18h-1.35v-.852c0-.41.097-.617.63-.617h.774c.1 0 .18-.081.18-.181v-1.352c0-.1-.08-.18-.18-.18z" fill="#fff"/><rect ry="16.512" y="107.612" x="51.07" height="73.245" width="306.06" fill="#3f51b5"/><path d="M285.157 257.198l-90.348 89.149-93.002-93.215-95.009-92.6 185.377 4.77 185.357 3.45z" fill="#3f51b5"/><text transform="matrix(.72793 0 0 .79845 -507.135 70.983)" y="270.811" x="820.023" style="line-height:125%;-inkscape-font-specification:Saab Bold" font-size="308.14" font-weight="700" letter-spacing="0" word-spacing="0" fill="#fff" filter="url(#a)" font-family="Saab"><tspan style="-inkscape-font-specification:Sans Bold" y="270.811" x="820.023" font-family="Sans">M</tspan></text><path d="M217.3 360.501c0 8.678-7.035 15.713-15.713 15.713-8.678 0-15.712-7.035-15.712-15.713 0-8.677 7.034-15.712 15.712-15.712S217.3 351.824 217.3 360.5z" fill="#fff" stroke="#5d5d5d" stroke-width="6.575"/><rect transform="matrix(.51423 .56283 -.57101 .50513 -507.135 70.983)" ry="23.018" y="-795.679" x="721.34" height="46.035" width="166.196" fill="#ef892f" filter="url(#b)"/><rect transform="matrix(-.52347 .55425 .5867 .48683 -507.135 70.983)" ry="21.436" y="919.575" x="-657.215" height="42.872" width="378.42" fill="#be1337" filter="url(#c)"/><rect transform="matrix(-.76237 0 0 .76237 -507.135 70.983)" ry="24.137" y="7.428" x="-1093.582" height="48.274" width="325.178" fill="#f5d415" filter="url(#d)"/><path d="M326.263 95.736c0 8.678-7.034 15.713-15.712 15.713s-15.713-7.035-15.713-15.713c0-8.678 7.035-15.713 15.713-15.713 8.678 0 15.712 7.035 15.712 15.713zm68.449 74.528c0 8.678-7.035 15.713-15.713 15.713-8.678 0-15.712-7.035-15.712-15.713 0-8.677 7.034-15.712 15.712-15.712s15.713 7.035 15.713 15.712z" fill="#fff" stroke="#5d5d5d" stroke-width="6.575"/><rect transform="matrix(-.51423 .56283 .57101 .50513 -507.135 70.983)" ry="23.018" y="577.467" x="-509.822" height="46.035" width="166.196" fill="#00b050" filter="url(#e)"/><rect transform="matrix(.52347 .55425 -.5867 .48683 -507.135 70.983)" ry="21.436" y="-434.034" x="532.984" height="42.872" width="378.42" fill="#0795d3" filter="url(#f)"/><path d="M8.206 170.947c0 8.677 7.035 15.712 15.713 15.712 8.677 0 15.712-7.035 15.712-15.712 0-8.678-7.035-15.713-15.712-15.713-8.678 0-15.713 7.035-15.713 15.713zm177.412 190.237c0 8.677 7.035 15.712 15.713 15.712 8.678 0 15.712-7.035 15.712-15.712 0-8.678-7.034-15.713-15.712-15.713s-15.713 7.035-15.713 15.713zM75.869 95.736c0 8.678 7.035 15.713 15.713 15.713 8.677 0 15.712-7.035 15.712-15.713 0-8.678-7.035-15.713-15.712-15.713-8.678 0-15.713 7.035-15.713 15.713z" fill="#fff" stroke="#5d5d5d" stroke-width="6.575"/></g></svg>