<svg version="1" xmlns="http://www.w3.org/2000/svg" width="682.667" height="682.667" viewBox="0 0 512.000000 512.000000"><path d="M121.3 84c-7.3.8-17.9 5.7-26.4 12.2-8 6.1-84.5 90.1-87.6 96.2-4.1 8.1-2.9 24.6 2.6 33.9 1.4 2.5 53.8 58.8 116.5 125C250.9 483.2 243.5 476 255.3 476c9.3 0 14.4-2.4 21.9-10.4 3.7-3.9 22.3-23.8 41.4-44.1 19.1-20.4 38.8-41.3 43.8-46.5 15.6-16.4 24.5-25.8 81.6-86.3 30.5-32.3 56.7-60.9 58.2-63.5 3.5-6.1 5.8-19.1 4.7-26.2-.4-2.8-1.9-7-3.3-9.3-2.2-3.8-60.8-68.9-78-86.6-7.5-7.7-19.3-16.2-25.4-18.3-2.9-1-34.1-1.3-138.2-1.4-74-.1-137.3.2-140.7.6zm3.6 14.7c11.2 8.4 6.9 26.2-6.9 28-4.7.7-11.5-2.4-14.4-6.4-2.8-3.8-3.2-11.9-.8-16.3 3.9-7.3 15.6-10.1 22.1-5.3zm277.1-.5c9.2 4.8 10.9 16.6 3.5 24.1-3.4 3.4-9.2 5.2-13.9 4.3-7.8-1.5-13.7-11-11.6-18.8 2.9-10.3 12.4-14.4 22-9.6zm-168.1 95.5c11.7 30.4 21.7 55.1 22 54.8.4-.2 10.4-25.2 22.2-55.4l21.4-55.1H371v156.6l-24.7 26.3-24.8 26.2-.5-79.3-.5-79.3-6.1 15.5c-3.4 8.5-14.1 36.1-23.9 61.2L272.7 311h-33.5l-6.9-17.8c-3.9-9.7-14.6-37.2-23.9-61.1l-16.9-43.5-.3 79.2c-.1 43.6-.5 79.2-1 79.2-1.4 0-48.7-51-49.4-53.3-.8-3-1-154.2-.1-155 .4-.4 16.7-.6 36.2-.5l35.5.3 21.5 55.2zm255.1-.9c1.9.9 4.5 3.3 5.8 5.2 2 2.9 2.3 4.5 2 9-.5 6.7-2.7 10.2-8.4 13-5.1 2.5-7.7 2.5-13-.1-5.6-2.7-8.4-7.2-8.4-13.6 0-8.6 6.6-15.3 15-15.3 1.9 0 5.1.8 7 1.8zM37.8 194c4.6 2.9 7.2 7.6 7.2 13.4 0 9-6 14.8-15.2 14.8-15.5 0-20.6-21.5-6.8-28.4 4.6-2.4 10.7-2.3 14.8.2zm227 242.7c11.5 8.4 5.6 27.7-8.6 27.7-15.7 0-21.3-19.3-8.1-28.2 2.8-2 4.3-2.3 8.7-2 3.1.3 6.4 1.3 8 2.5z"/></svg>